<svg width="200px" height="400px" viewBox="0 0 175 270" fill="none" xmlns="http://www.w3.org/2000/svg">
<rect width="175" height="270" fill="none"/>
<g id="girl_laptop 1" clip-path="url(#clip0)">
<g id="girl">
<path id="Vector" d="M139.196 163.499C136.826 159.563 134.938 158.518 129.073 158.357C123.208 158.197 115.414 158.277 115.414 158.277L115.334 166.593C115.334 166.593 121.802 170.329 125.257 172.177C125.457 172.297 126.02 172.618 126.422 172.859C127.024 173.141 127.667 173.382 128.31 173.542C131.724 174.265 134.817 173.904 137.027 171.694C139.477 169.244 141.566 167.436 139.196 163.499Z" fill="#4B49BB"/>
<path id="Vector_2" d="M94.967 156.108C94.7661 156.268 94.2439 156.67 93.8823 156.951C93.4003 157.393 92.9584 157.915 92.5566 158.438C90.6284 161.33 89.7848 164.343 91.0301 167.235C92.396 170.409 93.3199 173.06 97.8192 172.297C102.318 171.534 104.046 170.168 106.376 164.825C108.706 159.482 111.558 152.171 111.518 152.171L103.845 148.997C103.845 148.997 97.9798 153.617 94.967 156.108Z" fill="#4B49BB"/>
<path id="Vector_3" d="M115.937 158.639C115.937 158.639 116.057 167.034 114.691 167.235C113.325 167.436 94.4849 164.705 86.9728 164.303C79.4606 163.901 62.4278 159.04 54.072 149.6C46.8411 141.445 47.9659 132.406 53.3088 132.406C58.6516 132.406 63.5526 127.867 77.1307 134.335C90.7087 140.802 105.09 141.887 113.165 141.244C121.239 140.601 143.856 136.424 145.624 135.138C147.391 133.853 155.867 130.157 167.678 131.442C179.489 132.728 173.905 142.088 171.414 145.703C167.919 150.725 159.644 156.108 152.734 156.349C145.825 156.59 115.937 158.639 115.937 158.639Z" fill="url(#paint0_linear)"/>
<path id="Vector_4" d="M101.957 11.8105C97.9799 13.2567 92.9182 32.9409 92.9182 32.9409L92.8379 32.8606L92.2754 35.5922L91.5925 39.1675L92.9182 60.539L105.773 66.9664L135.299 74.9205L143.454 86.5301C143.454 86.5301 161.733 105.13 161.853 106.415C161.974 107.701 142.209 114.249 140.321 114.53C135.782 115.213 169.365 106.978 158.599 93.9218C154.02 88.3379 147.311 71.546 134.014 60.4184C126.301 53.9909 128.47 35.7128 125.739 24.1433C122.324 9.68141 120.235 5.34285 116.82 5.34285C113.727 5.34285 109.429 9.03866 101.957 11.8105Z" fill="url(#paint1_linear)"/>
<path id="Vector_5" d="M105.854 0.241031C105.854 0.241031 96.8149 0.602578 94.2037 10.0831C91.5925 19.5637 91.231 32.7802 91.1506 34.829C91.0703 36.9983 92.0746 49.6926 87.2138 54.9952C83.0359 59.5748 84.7231 63.9937 83.6787 67.6494L83.1966 73.7153C83.277 74.4384 83.7992 75.041 84.4821 75.282C85.1249 75.4829 87.3745 74.4384 87.7762 74.2777C93.4003 72.0281 93.4003 70.2204 95.5294 68.4126C97.2969 66.9263 102.158 63.4715 103.604 62.1057C105.05 60.7398 106.054 59.5347 106.135 57.8073C106.416 49.0096 104.889 40.8949 102.961 36.5965C101.033 32.2982 97.3371 25.0271 100.43 20.2064C103.524 15.3858 109.107 10.5652 109.429 9.36004C109.75 8.15488 109.911 14.02 113.325 16.0687C116.74 18.1175 119.592 20.9697 120.637 23.7416C121.521 26.0715 122.686 30.0485 119.472 36.9179C116.258 43.7873 113.647 52.6251 118.186 59.1731C122.726 65.7211 132.287 72.7914 133.853 76.0855C135.621 79.7411 133.934 88.3379 133.612 93.52C133.291 98.7022 143.736 84.5215 143.414 77.7727C143.093 71.0238 144.218 68.1314 137.75 57.7671C131.282 47.4028 127.064 29.6468 126.904 25.3484C126.743 21.05 124.815 9.11901 120.918 5.7044C117.544 2.81203 116.82 0 109.911 0C108.545 0 107.179 0.0803437 105.854 0.241031Z" fill="url(#paint2_linear)"/>
<path id="Vector_6" d="M110.152 126.622C111.638 126.622 112.843 125.417 112.843 123.93C112.843 122.444 111.638 121.239 110.152 121.239C108.665 121.239 107.46 122.444 107.46 123.93C107.46 125.417 108.665 126.622 110.152 126.622Z" fill="#77C7E8"/>
<path id="Vector_7" opacity="0.07" d="M110.674 41.4172C110.674 41.4172 114.932 42.5018 116.7 40.0111C120.677 34.3871 117.061 42.8633 117.061 42.8633C117.061 42.8633 115.896 46.1574 115.977 47.8045C116.057 49.4515 111.397 41.6582 110.674 41.4172Z" fill="black"/>
<path id="Vector_8" opacity="0.07" d="M93.6413 70.3409C93.1191 70.9836 92.3558 71.5059 91.9541 73.1529C91.2712 75.8043 90.5481 78.777 88.7002 81.5087C87.6155 83.1155 88.2181 89.3422 90.0258 93.279C90.5481 94.4038 92.1549 97.3364 92.1148 98.0193L91.9942 103.724H96.8952C96.8952 103.724 101.073 104.166 100.189 100.711C99.426 97.6577 95.449 86.2891 98.1405 83.7985C103.202 79.1787 96.8149 69.9392 99.185 66.9665C101.234 64.3955 104.166 62.5476 104.166 61.7039C104.166 61.3826 103.403 62.427 102.881 62.7886C101.877 63.5117 101.354 64.0741 100.511 64.6365C99.5867 65.2391 98.1807 66.2434 97.2568 66.9263C95.9311 67.9306 94.7259 69.0554 93.6413 70.3409Z" fill="black"/>
<g id="hand">
<path id="Vector_9" d="M143.736 58.5304C137.549 52.8661 135.46 51.5003 130.037 53.4285C124.614 55.3568 121.962 57.1243 114.571 58.3295C110.031 59.1329 105.331 58.5304 101.113 56.6825L85.8881 58.209C83.9599 57.968 62.3073 98.6219 61.785 107.058C61.4637 112.24 73.234 120.234 76.5281 121.038C77.8538 121.359 80.2239 108.584 80.9872 107.419L76.046 105.893C76.9298 103.684 79.9025 98.2201 81.8709 95.2876C82.4735 94.3636 87.1736 86.6105 87.8164 83.6378C87.9369 83.919 88.6198 89.543 89.2626 91.3508C90.4677 94.685 92.1148 96.5731 92.1148 99.2244C92.1148 101.876 91.7934 112.401 89.8651 117.141C87.9369 121.881 85.1249 132.848 85.1249 132.848L133.813 132.567C133.813 132.567 132.046 111.638 132.769 104.447C132.769 104.447 132.005 101.554 133.452 97.3765C135.822 90.467 136.505 80.183 136.103 78.5761C135.5 76.0453 150.404 97.4569 153.658 102.88C155.024 105.13 136.505 109.107 134.978 110.834C133.371 112.642 136.545 117.543 136.545 117.543C136.545 117.543 168.843 113.606 168.682 108.665C168.522 103.724 150.926 65.0784 143.736 58.5304Z" fill="url(#paint3_linear)"/>
</g>
</g>
<g id="laptop">
<g id="laptop_2">
<path id="Vector_10" d="M74.5597 106.937C74.5597 106.937 74.5195 103.965 77.452 103.844C80.3846 103.724 142.49 103.804 142.49 103.804C142.49 103.804 145.222 104.125 145.302 106.335C145.383 108.544 145.383 141.365 145.383 141.365C145.383 141.365 145.423 143.896 142.731 143.976C140.04 144.056 76.7289 144.056 76.7289 144.056C76.7289 144.056 74.3588 143.454 74.399 141.083C74.4392 138.713 74.5597 106.937 74.5597 106.937Z" fill="white"/>
</g>
</g>
</g>
<defs>
<linearGradient id="paint0_linear" x1="174.931" y1="149.052" x2="48.9743" y2="149.052" gradientUnits="userSpaceOnUse">
<stop stop-color="#4B45BD"/>
<stop offset="1" stop-color="#58CAEA"/>
</linearGradient>
<linearGradient id="paint1_linear" x1="91.5925" y1="59.9561" x2="161.854" y2="59.9561" gradientUnits="userSpaceOnUse">
<stop stop-color="#F87B58"/>
<stop offset="0.5" stop-color="#F8C548"/>
<stop offset="1" stop-color="#F89C51"/>
</linearGradient>
<linearGradient id="paint2_linear" x1="83.1966" y1="47.3177" x2="143.421" y2="47.3177" gradientUnits="userSpaceOnUse">
<stop stop-color="#4B45BD"/>
<stop offset="1" stop-color="#58CAEA"/>
</linearGradient>
<linearGradient id="paint3_linear" x1="61.7786" y1="92.7269" x2="168.683" y2="92.7269" gradientUnits="userSpaceOnUse">
<stop stop-color="#E5A4ED"/>
<stop offset="1" stop-color="#7A5BF5"/>
</linearGradient>
<clipPath id="clip0">
<rect width="174.99" height="269.312" fill="white"/>
</clipPath>
</defs>
</svg>
