<svg width="600" height="600" viewBox="0 0 600 600" fill="none" xmlns="http://www.w3.org/2000/svg">
<rect width="600" height="600" fill="#E5E5E5"/>
<g id="girl_laptop 1" clip-path="url(#clip0)">
<g id="girl">
<path id="Vector" d="M490.196 286.499C487.826 282.563 485.938 281.518 480.073 281.357C474.208 281.197 466.414 281.277 466.414 281.277L466.334 289.593C466.334 289.593 472.802 293.329 476.257 295.177C476.457 295.297 477.02 295.618 477.422 295.859C478.024 296.141 478.667 296.382 479.31 296.542C482.724 297.265 485.817 296.904 488.027 294.694C490.477 292.244 492.566 290.436 490.196 286.499Z" fill="#4B49BB"/>
<path id="Vector_2" d="M445.967 279.108C445.766 279.268 445.244 279.67 444.882 279.951C444.4 280.393 443.958 280.915 443.557 281.438C441.628 284.33 440.785 287.343 442.03 290.235C443.396 293.409 444.32 296.06 448.819 295.297C453.318 294.534 455.046 293.168 457.376 287.825C459.706 282.482 462.558 275.171 462.518 275.171L454.845 271.997C454.845 271.997 448.98 276.617 445.967 279.108Z" fill="#4B49BB"/>
<path id="Vector_3" d="M466.937 281.639C466.937 281.639 467.057 290.034 465.691 290.235C464.325 290.436 445.485 287.705 437.973 287.303C430.461 286.901 413.428 282.04 405.072 272.6C397.841 264.445 398.966 255.406 404.309 255.406C409.652 255.406 414.553 250.867 428.131 257.335C441.709 263.802 456.09 264.887 464.165 264.244C472.239 263.601 494.856 259.424 496.624 258.138C498.391 256.853 506.867 253.157 518.678 254.442C530.489 255.728 524.905 265.088 522.414 268.703C518.919 273.725 510.644 279.108 503.734 279.349C496.825 279.59 466.937 281.639 466.937 281.639Z" fill="url(#paint0_linear)"/>
<path id="Vector_4" d="M452.957 134.811C448.98 136.257 443.918 155.941 443.918 155.941L443.838 155.861L443.275 158.592L442.593 162.168L443.918 183.539L456.773 189.966L486.299 197.92L494.454 209.53C494.454 209.53 512.733 228.13 512.853 229.415C512.974 230.701 493.209 237.249 491.321 237.53C486.782 238.213 520.365 229.978 509.599 216.922C505.02 211.338 498.311 194.546 485.014 183.418C477.301 176.991 479.47 158.713 476.739 147.143C473.324 132.681 471.235 128.343 467.82 128.343C464.727 128.343 460.429 132.039 452.957 134.811Z" fill="url(#paint1_linear)"/>
<path id="Vector_5" d="M456.854 123.241C456.854 123.241 447.815 123.603 445.204 133.083C442.593 142.564 442.231 155.78 442.151 157.829C442.07 159.998 443.075 172.693 438.214 177.995C434.036 182.575 435.723 186.994 434.679 190.649L434.197 196.715C434.277 197.438 434.799 198.041 435.482 198.282C436.125 198.483 438.374 197.438 438.776 197.278C444.4 195.028 444.4 193.22 446.529 191.413C448.297 189.926 453.158 186.472 454.604 185.106C456.05 183.74 457.054 182.535 457.135 180.807C457.416 172.01 455.889 163.895 453.961 159.597C452.033 155.298 448.337 148.027 451.43 143.206C454.524 138.386 460.107 133.565 460.429 132.36C460.75 131.155 460.911 137.02 464.325 139.069C467.74 141.117 470.592 143.97 471.637 146.742C472.521 149.072 473.686 153.049 470.472 159.918C467.258 166.787 464.647 175.625 469.186 182.173C473.726 188.721 483.287 195.791 484.853 199.085C486.621 202.741 484.934 211.338 484.612 216.52C484.291 221.702 494.736 207.522 494.414 200.773C494.093 194.024 495.218 191.131 488.75 180.767C482.282 170.403 478.064 152.647 477.904 148.348C477.743 144.05 475.815 132.119 471.918 128.704C468.544 125.812 467.82 123 460.911 123C459.545 123 458.179 123.08 456.854 123.241Z" fill="url(#paint2_linear)"/>
<path id="Vector_6" d="M461.152 249.622C462.638 249.622 463.843 248.417 463.843 246.93C463.843 245.444 462.638 244.239 461.152 244.239C459.665 244.239 458.46 245.444 458.46 246.93C458.46 248.417 459.665 249.622 461.152 249.622Z" fill="#77C7E8"/>
<path id="Vector_7" opacity="0.07" d="M461.674 164.417C461.674 164.417 465.932 165.502 467.7 163.011C471.677 157.387 468.061 165.863 468.061 165.863C468.061 165.863 466.896 169.157 466.977 170.804C467.057 172.452 462.397 164.658 461.674 164.417Z" fill="black"/>
<path id="Vector_8" opacity="0.07" d="M444.641 193.341C444.119 193.984 443.356 194.506 442.954 196.153C442.271 198.804 441.548 201.777 439.7 204.509C438.616 206.116 439.218 212.342 441.026 216.279C441.548 217.404 443.155 220.336 443.115 221.019L442.994 226.724H447.895C447.895 226.724 452.073 227.166 451.189 223.711C450.426 220.658 446.449 209.289 449.141 206.798C454.202 202.179 447.815 192.939 450.185 189.966C452.234 187.395 455.166 185.548 455.166 184.704C455.166 184.383 454.403 185.427 453.881 185.789C452.877 186.512 452.354 187.074 451.511 187.636C450.587 188.239 449.181 189.243 448.257 189.926C446.931 190.931 445.726 192.055 444.641 193.341Z" fill="black"/>
<g id="hand">
<path id="Vector_9" d="M494.736 181.53C488.549 175.866 486.46 174.5 481.037 176.429C475.614 178.357 472.962 180.124 465.571 181.33C461.031 182.133 456.331 181.53 452.113 179.682L436.888 181.209C434.96 180.968 413.307 221.622 412.785 230.058C412.464 235.24 424.234 243.234 427.528 244.038C428.854 244.359 431.224 231.584 431.987 230.419L427.046 228.893C427.93 226.684 430.903 221.22 432.871 218.288C433.474 217.364 438.174 209.61 438.816 206.638C438.937 206.919 439.62 212.543 440.263 214.351C441.468 217.685 443.115 219.573 443.115 222.224C443.115 224.876 442.793 235.401 440.865 240.141C438.937 244.881 436.125 255.848 436.125 255.848L484.813 255.567C484.813 255.567 483.046 234.638 483.769 227.447C483.769 227.447 483.005 224.554 484.452 220.377C486.822 213.467 487.505 203.183 487.103 201.576C486.5 199.045 501.404 220.457 504.658 225.88C506.024 228.13 487.505 232.107 485.978 233.834C484.371 235.642 487.545 240.543 487.545 240.543C487.545 240.543 519.843 236.606 519.682 231.665C519.522 226.724 501.926 188.078 494.736 181.53Z" fill="url(#paint3_linear)"/>
</g>
</g>
<g id="laptop">
<g id="laptop_2">
<path id="Vector_10" d="M425.56 229.937C425.56 229.937 425.519 226.965 428.452 226.844C431.385 226.724 493.49 226.804 493.49 226.804C493.49 226.804 496.222 227.125 496.302 229.335C496.383 231.544 496.383 264.365 496.383 264.365C496.383 264.365 496.423 266.896 493.731 266.976C491.04 267.056 427.729 267.056 427.729 267.056C427.729 267.056 425.359 266.454 425.399 264.083C425.439 261.713 425.56 229.937 425.56 229.937Z" fill="white"/>
</g>
</g>
</g>
<g id="automation 1" clip-path="url(#clip1)">
<path id="Vector_11" d="M600 83.6283H0V516.372H600V83.6283Z" fill="#E5E5E5"/>
<g id="undraw smart home 28oy 1">
<path id="Vector_12" opacity="0.1" d="M362.605 150.215C324.141 148.882 287.504 136.463 252.523 122.875C217.543 109.287 182.886 94.245 145.347 87.0397C121.198 82.4096 93.5819 81.73 74.127 94.7016C55.3996 107.158 49.3518 128.684 46.1023 148.622C43.6545 163.638 42.2155 179.418 48.9164 193.495C53.5731 203.249 61.8403 211.452 67.5589 220.797C87.4439 253.325 73.3996 293.429 51.8315 325.181C41.743 340.08 29.9925 354.289 22.1925 370.149C14.3925 386.01 10.7819 404.174 17.6049 420.348C24.3748 436.383 40.4952 448.404 57.9642 456.9C93.4385 474.103 135.242 479.031 176.005 481.818C266.239 487.988 356.955 485.318 447.428 482.641C480.911 481.649 514.538 480.645 547.479 475.468C565.766 472.595 584.647 468.034 597.922 457.017C614.78 443.031 618.959 419.349 607.66 401.795C588.715 372.385 536.323 365.079 523.081 333.512C515.791 316.139 523.277 296.785 533.87 280.67C556.596 246.098 594.688 215.774 596.695 176.259C598.076 149.121 579.762 121.941 551.451 109.102C521.77 95.6415 480.619 97.3353 458.722 119.615C436.187 142.564 396.566 151.394 362.605 150.215Z" fill="#6C63FF"/>
<path id="Vector 2" d="M452.902 155.195H201.008C195.202 155.195 190.495 159.903 190.495 165.709V473.339C190.495 479.145 195.202 483.852 201.008 483.852H452.902C458.708 483.852 463.416 479.145 463.416 473.339V165.709C463.416 159.903 458.708 155.195 452.902 155.195Z" fill="#464353"/>
<path id="Vector 3" opacity="0.1" d="M439.872 186.348H214.039V448.696H439.872V186.348Z" fill="white" stroke="white" stroke-width="0.530973" stroke-miterlimit="10"/>
<path id="Vector 4" d="M326.955 477.608C332.263 477.608 336.566 473.305 336.566 467.997C336.566 462.69 332.263 458.387 326.955 458.387C321.648 458.387 317.345 462.69 317.345 467.997C317.345 473.305 321.648 477.608 326.955 477.608Z" fill="white"/>
<path id="Vector 5" d="M326.955 178.951C326.058 178.946 325.182 178.675 324.44 178.172C323.696 177.67 323.119 176.958 322.779 176.128C322.44 175.297 322.354 174.385 322.533 173.506C322.712 172.626 323.148 171.82 323.785 171.188C324.422 170.556 325.232 170.127 326.113 169.955C326.993 169.784 327.905 169.877 328.733 170.223C329.56 170.569 330.267 171.152 330.763 171.9C331.26 172.647 331.524 173.525 331.522 174.422C331.52 175.019 331.4 175.61 331.169 176.161C330.939 176.713 330.602 177.212 330.177 177.633C329.753 178.054 329.25 178.387 328.697 178.613C328.145 178.839 327.553 178.954 326.955 178.951Z" fill="white"/>
<path id="Vector 6" d="M326.955 170.137C327.803 170.132 328.633 170.379 329.34 170.846C330.047 171.314 330.599 171.981 330.926 172.763C331.253 173.545 331.34 174.407 331.176 175.239C331.011 176.07 330.604 176.834 330.004 177.434C329.405 178.033 328.641 178.441 327.809 178.605C326.978 178.769 326.116 178.682 325.334 178.355C324.552 178.028 323.885 177.477 323.417 176.769C322.949 176.063 322.702 175.232 322.708 174.385C322.716 173.261 323.166 172.185 323.961 171.39C324.756 170.596 325.831 170.146 326.955 170.137ZM326.955 169.606C326.004 169.606 325.074 169.889 324.283 170.418C323.492 170.947 322.876 171.699 322.513 172.578C322.151 173.458 322.057 174.426 322.245 175.359C322.432 176.292 322.892 177.147 323.567 177.819C324.242 178.49 325.101 178.945 326.034 179.127C326.968 179.31 327.935 179.211 328.813 178.843C329.69 178.475 330.439 177.855 330.964 177.061C331.489 176.268 331.766 175.336 331.761 174.385C331.754 173.115 331.244 171.899 330.344 171.004C329.443 170.109 328.225 169.606 326.955 169.606Z" fill="white"/>
<g id="home">
<path id="Vector 7" d="M323.451 236.652V227.307H330.46V236.652H337.585V222.64H342.141L326.955 208.622L311.775 222.64H316.325V236.652H323.451Z" fill="#6C63FF"/>
</g>
<g id="temperature">
<path id="Vector 8" d="M248.387 280.086V269.997C248.387 269.429 248.162 268.884 247.76 268.482C247.358 268.08 246.813 267.855 246.245 267.855C245.677 267.855 245.132 268.08 244.73 268.482C244.328 268.884 244.102 269.429 244.102 269.997V280.086C243.257 280.56 242.593 281.301 242.214 282.192C241.834 283.084 241.762 284.076 242.006 285.014C242.251 285.951 242.8 286.781 243.567 287.373C244.334 287.966 245.276 288.287 246.245 288.287C247.214 288.287 248.155 287.966 248.922 287.373C249.689 286.781 250.238 285.951 250.483 285.014C250.728 284.076 250.655 283.084 250.276 282.192C249.897 281.301 249.233 280.56 248.387 280.086ZM245.504 269.997C245.519 269.815 245.603 269.644 245.739 269.52C245.874 269.396 246.05 269.327 246.234 269.327C246.418 269.327 246.595 269.396 246.73 269.52C246.865 269.644 246.949 269.815 246.964 269.997V272.259H245.504V269.997Z" fill="white" stroke="white" stroke-width="0.530973" stroke-miterlimit="10"/>
</g>
<path id="Vector 9" opacity="0.3" d="M403.352 277.325H275.918V278.742H403.352V277.325Z" fill="#6C63FF"/>
<path id="Vector 10" d="M315.269 281.397C317.125 281.397 318.63 279.892 318.63 278.036C318.63 276.18 317.125 274.675 315.269 274.675C313.412 274.675 311.908 276.18 311.908 278.036C311.908 279.892 313.412 281.397 315.269 281.397Z" fill="#6C63FF"/>
<path id="Vector 11" d="M315.269 277.325H275.918V278.742H315.269V277.325Z" fill="#6C63FF"/>
<path id="Vector 12" d="M246.985 329.381C246.962 329.192 246.868 329.018 246.723 328.894C246.577 328.77 246.39 328.705 246.2 328.712C246.025 328.707 245.855 328.762 245.715 328.866C245.576 328.969 245.475 329.117 245.43 329.286L244.654 333.502C244.633 333.608 244.623 333.717 244.623 333.826C244.623 334.248 244.79 334.653 245.089 334.952C245.388 335.251 245.793 335.418 246.216 335.418C246.638 335.418 247.043 335.251 247.342 334.952C247.641 334.653 247.808 334.248 247.808 333.826C247.807 333.695 247.789 333.564 247.755 333.438L246.985 329.381ZM253.017 331.192C252.936 331.125 252.848 331.065 252.757 331.011L249.614 328.845C249.495 328.756 249.348 328.712 249.2 328.72C249.051 328.728 248.911 328.787 248.801 328.887C248.704 328.973 248.641 329.092 248.626 329.222C248.61 329.351 248.642 329.482 248.716 329.588L251.138 332.588C251.184 332.658 251.238 332.724 251.297 332.785C251.535 332.991 251.84 333.104 252.154 333.104C252.469 333.104 252.774 332.991 253.012 332.785C253.125 332.685 253.215 332.562 253.277 332.425C253.34 332.288 253.371 332.139 253.371 331.988C253.371 331.838 253.34 331.689 253.277 331.551C253.215 331.414 253.125 331.292 253.012 331.192H253.017ZM255.141 328.096L252.194 327.99C252.106 327.976 252.015 327.997 251.942 328.049C251.869 328.1 251.818 328.178 251.801 328.266C251.79 328.35 251.807 328.435 251.85 328.508C251.892 328.581 251.957 328.638 252.035 328.67L254.886 329.477C255.3 329.567 255.762 329.376 255.762 328.946C255.762 328.415 255.608 328.144 255.141 328.091V328.096ZM240.497 328.67C240.575 328.638 240.64 328.581 240.682 328.508C240.725 328.435 240.742 328.35 240.731 328.266C240.713 328.178 240.661 328.1 240.587 328.048C240.513 327.997 240.422 327.976 240.332 327.99L237.391 328.096C236.918 328.149 236.78 328.41 236.78 328.946C236.78 329.371 237.231 329.567 237.64 329.477L240.492 328.664L240.497 328.67ZM242.902 328.84L239.759 331.001C239.669 331.053 239.583 331.113 239.504 331.181C239.391 331.281 239.301 331.404 239.239 331.541C239.176 331.678 239.145 331.827 239.145 331.978C239.145 332.129 239.176 332.277 239.239 332.415C239.301 332.552 239.391 332.674 239.504 332.774C239.738 332.987 240.042 333.106 240.359 333.106C240.675 333.106 240.98 332.987 241.214 332.774C241.277 332.718 241.333 332.654 241.378 332.583L243.8 329.594C243.874 329.487 243.906 329.356 243.89 329.227C243.875 329.098 243.812 328.979 243.715 328.893C243.605 328.786 243.46 328.722 243.307 328.712C243.155 328.703 243.004 328.748 242.881 328.84H242.902ZM246.269 314.843C246.269 314.843 247.649 316.436 247.649 317.779C247.673 318.07 247.636 318.363 247.541 318.638C247.447 318.914 247.296 319.167 247.1 319.383C246.903 319.598 246.664 319.77 246.398 319.889C246.131 320.008 245.843 320.071 245.552 320.073C245.254 320.073 244.959 320.012 244.684 319.896C244.41 319.78 244.161 319.61 243.954 319.396C243.746 319.182 243.583 318.929 243.474 318.652C243.366 318.374 243.314 318.077 243.322 317.779V317.466C242.033 319.032 241.331 320.998 241.336 323.026C241.336 324.33 241.854 325.58 242.776 326.502C243.698 327.424 244.949 327.942 246.253 327.942C247.557 327.942 248.807 327.424 249.73 326.502C250.651 325.58 251.17 324.33 251.17 323.026C251.17 319.712 249.534 315.831 246.247 314.843H246.269ZM246.093 326.1C245.575 326.106 245.075 325.905 244.703 325.543C244.332 325.181 244.12 324.686 244.113 324.167C244.112 323.69 244.288 323.23 244.607 322.876C244.925 322.522 245.364 322.299 245.839 322.25C246.945 322.07 247.952 321.506 248.685 320.657C248.926 321.463 249.047 322.301 249.046 323.142C249.046 323.926 248.734 324.676 248.181 325.23C247.627 325.783 246.877 326.095 246.093 326.095V326.1Z" fill="white" stroke="white" stroke-width="0.530973" stroke-miterlimit="10"/>
<path id="Vector 13" opacity="0.3" d="M403.352 324.353H275.918V325.771H403.352V324.353Z" fill="#6C63FF"/>
<path id="Vector 14" d="M345.003 328.426C346.859 328.426 348.364 326.921 348.364 325.064C348.364 323.208 346.859 321.703 345.003 321.703C343.147 321.703 341.642 323.208 341.642 325.064C341.642 326.921 343.147 328.426 345.003 328.426Z" fill="#6C63FF"/>
<path id="Vector 15" d="M345.327 324.353H275.918V325.771H345.327V324.353Z" fill="#6C63FF"/>
<g id="bulb">
<path id="Vector 16" d="M243.327 379.606C243.329 379.848 243.425 380.079 243.596 380.25C243.767 380.421 243.999 380.518 244.24 380.519H248.254C248.496 380.518 248.728 380.421 248.899 380.25C249.07 380.079 249.166 379.848 249.168 379.606V378.788H243.327V379.606ZM246.247 362.997C242.61 362.997 239.679 365.732 239.679 369.114C239.687 370.122 239.947 371.113 240.437 371.994C240.927 372.875 241.631 373.619 242.483 374.158V376.139C242.487 376.258 242.515 376.376 242.564 376.484C242.613 376.593 242.684 376.69 242.771 376.772C242.858 376.853 242.961 376.916 243.073 376.958C243.184 377 243.303 377.019 243.423 377.015H249.072C249.192 377.019 249.311 377 249.422 376.958C249.534 376.916 249.637 376.853 249.724 376.772C249.811 376.69 249.881 376.593 249.931 376.484C249.98 376.376 250.008 376.258 250.012 376.139V374.158C250.866 373.621 251.571 372.877 252.062 371.996C252.553 371.114 252.813 370.123 252.821 369.114C252.821 365.732 249.885 362.997 246.247 362.997Z" fill="white" stroke="white" stroke-width="0.530973" stroke-miterlimit="10"/>
</g>
<path id="Vector 17" opacity="0.3" d="M403.352 371.052H275.918V372.47H403.352V371.052Z" fill="#6C63FF"/>
<path id="Vector 18" d="M377.923 375.119C379.78 375.119 381.285 373.615 381.285 371.758C381.285 369.902 379.78 368.397 377.923 368.397C376.067 368.397 374.562 369.902 374.562 371.758C374.562 373.615 376.067 375.119 377.923 375.119Z" fill="#6C63FF"/>
<path id="Vector 19" d="M378.247 371.052H275.918V372.47H378.247V371.052Z" fill="#6C63FF"/>
<g id="light">
<path id="Vector 20" d="M241.867 407.44V417.656H244.787V426.417L250.628 414.735H247.708L250.628 407.44H241.867Z" fill="white" stroke="white" stroke-width="0.530973" stroke-miterlimit="10"/>
</g>
<path id="Vector 21" opacity="0.3" d="M403.352 416.222H275.918V417.64H403.352V416.222Z" fill="#6C63FF"/>
<path id="Vector 22" d="M315.269 420.289C317.125 420.289 318.63 418.784 318.63 416.928C318.63 415.072 317.125 413.567 315.269 413.567C313.412 413.567 311.908 415.072 311.908 416.928C311.908 418.784 313.412 420.289 315.269 420.289Z" fill="#6C63FF"/>
<path id="Vector 23" d="M315.269 416.222H275.918V417.64H315.269V416.222Z" fill="#6C63FF"/>
<path id="Vector 24" d="M196.697 504.528C214.136 504.528 228.274 501.808 228.274 498.454C228.274 495.099 214.136 492.379 196.697 492.379C179.258 492.379 165.12 495.099 165.12 498.454C165.12 501.808 179.258 504.528 196.697 504.528Z" fill="#6C63FF"/>
<path id="Vector 25" d="M196.171 500.684C198.201 500.684 199.846 498.53 199.846 495.873C199.846 493.216 198.201 491.063 196.171 491.063C194.142 491.063 192.497 493.216 192.497 495.873C192.497 498.53 194.142 500.684 196.171 500.684Z" fill="#3F3D56"/>
<path id="Vector 26" d="M196.171 494.801C198.201 494.801 199.846 492.647 199.846 489.99C199.846 487.333 198.201 485.179 196.171 485.179C194.142 485.179 192.497 487.333 192.497 489.99C192.497 492.647 194.142 494.801 196.171 494.801Z" fill="#3F3D56"/>
<path id="Vector 27" d="M196.171 488.923C198.201 488.923 199.846 486.769 199.846 484.112C199.846 481.455 198.201 479.302 196.171 479.302C194.142 479.302 192.497 481.455 192.497 484.112C192.497 486.769 194.142 488.923 196.171 488.923Z" fill="#3F3D56"/>
<path id="Vector 28" d="M196.171 483.04C198.201 483.04 199.846 480.886 199.846 478.229C199.846 475.572 198.201 473.418 196.171 473.418C194.142 473.418 192.497 475.572 192.497 478.229C192.497 480.886 194.142 483.04 196.171 483.04Z" fill="#3F3D56"/>
<path id="Vector 29" d="M196.171 477.156C198.201 477.156 199.846 475.003 199.846 472.346C199.846 469.689 198.201 467.535 196.171 467.535C194.142 467.535 192.497 469.689 192.497 472.346C192.497 475.003 194.142 477.156 196.171 477.156Z" fill="#3F3D56"/>
<path id="Vector 30" d="M196.171 471.273C198.201 471.273 199.846 469.12 199.846 466.463C199.846 463.806 198.201 461.652 196.171 461.652C194.142 461.652 192.497 463.806 192.497 466.463C192.497 469.12 194.142 471.273 196.171 471.273Z" fill="#3F3D56"/>
<path id="Vector 31" d="M196.171 465.39C198.201 465.39 199.846 463.236 199.846 460.579C199.846 457.922 198.201 455.769 196.171 455.769C194.142 455.769 192.497 457.922 192.497 460.579C192.497 463.236 194.142 465.39 196.171 465.39Z" fill="#3F3D56"/>
<path id="Vector 32" d="M209.929 420.332C210.43 419.69 210.888 419.016 211.299 418.314L201.635 416.721L212.085 416.801C213.085 414.619 213.631 412.257 213.689 409.858C213.746 407.459 213.314 405.074 212.419 402.847L198.412 410.121L211.336 400.617C210.125 398.523 208.496 396.702 206.55 395.265C204.605 393.829 202.384 392.809 200.027 392.268C197.67 391.728 195.226 391.678 192.85 392.123C190.472 392.568 188.212 393.498 186.21 394.854C184.208 396.211 182.507 397.965 181.213 400.008C179.918 402.051 179.059 404.339 178.687 406.729C178.315 409.118 178.439 411.559 179.053 413.898C179.665 416.238 180.753 418.426 182.249 420.326C181.47 421.315 180.797 422.383 180.242 423.512L192.784 430.027L179.414 425.572C178.475 428.347 178.243 431.312 178.738 434.199C179.233 437.085 180.44 439.804 182.249 442.107C180.208 444.704 178.937 447.824 178.585 451.108C178.232 454.394 178.811 457.711 180.255 460.683C181.699 463.654 183.95 466.16 186.75 467.913C189.551 469.665 192.788 470.595 196.092 470.595C199.395 470.595 202.633 469.665 205.433 467.913C208.233 466.16 210.484 463.654 211.928 460.683C213.372 457.711 213.951 454.394 213.598 451.108C213.245 447.824 211.976 444.704 209.934 442.107C212.373 439.003 213.699 435.17 213.699 431.222C213.699 427.274 212.373 423.441 209.934 420.337L209.929 420.332Z" fill="#6C63FF"/>
<path id="Vector 33" opacity="0.1" d="M178.485 431.217C178.477 435.165 179.803 439.001 182.249 442.102C180.208 444.699 178.937 447.819 178.585 451.103C178.232 454.388 178.811 457.706 180.255 460.678C181.699 463.649 183.95 466.155 186.75 467.907C189.551 469.66 192.788 470.589 196.092 470.589C199.395 470.589 202.633 469.66 205.433 467.907C208.233 466.155 210.484 463.649 211.928 460.678C213.372 457.706 213.951 454.388 213.598 451.103C213.245 447.819 211.976 444.699 209.934 442.102C212.292 439.107 178.485 429.241 178.485 431.217Z" fill="black"/>
<path id="Vector 34" d="M127.585 455.121C154.547 455.121 176.403 450.918 176.403 445.733C176.403 440.549 154.547 436.346 127.585 436.346C100.624 436.346 78.7678 440.549 78.7678 445.733C78.7678 450.918 100.624 455.121 127.585 455.121Z" fill="#6C63FF"/>
<path id="Vector 35" d="M128.398 449.185C131.535 449.185 134.079 445.854 134.079 441.746C134.079 437.637 131.535 434.307 128.398 434.307C125.26 434.307 122.716 437.637 122.716 441.746C122.716 445.854 125.26 449.185 128.398 449.185Z" fill="#3F3D56"/>
<path id="Vector 36" d="M128.398 440.089C131.535 440.089 134.079 436.758 134.079 432.65C134.079 428.542 131.535 425.211 128.398 425.211C125.26 425.211 122.716 428.542 122.716 432.65C122.716 436.758 125.26 440.089 128.398 440.089Z" fill="#3F3D56"/>
<path id="Vector 37" d="M128.398 430.994C131.535 430.994 134.079 427.663 134.079 423.555C134.079 419.446 131.535 416.116 128.398 416.116C125.26 416.116 122.716 419.446 122.716 423.555C122.716 427.663 125.26 430.994 128.398 430.994Z" fill="#3F3D56"/>
<path id="Vector 38" d="M128.398 421.898C131.535 421.898 134.079 418.567 134.079 414.459C134.079 410.35 131.535 407.02 128.398 407.02C125.26 407.02 122.716 410.35 122.716 414.459C122.716 418.567 125.26 421.898 128.398 421.898Z" fill="#3F3D56"/>
<path id="Vector 39" d="M128.398 412.808C131.535 412.808 134.079 409.477 134.079 405.369C134.079 401.26 131.535 397.93 128.398 397.93C125.26 397.93 122.716 401.26 122.716 405.369C122.716 409.477 125.26 412.808 128.398 412.808Z" fill="#3F3D56"/>
<path id="Vector 40" d="M128.398 403.712C131.535 403.712 134.079 400.381 134.079 396.273C134.079 392.165 131.535 388.834 128.398 388.834C125.26 388.834 122.716 392.165 122.716 396.273C122.716 400.381 125.26 403.712 128.398 403.712Z" fill="#3F3D56"/>
<path id="Vector 41" d="M128.398 394.617C131.535 394.617 134.079 391.286 134.079 387.178C134.079 383.069 131.535 379.739 128.398 379.739C125.26 379.739 122.716 383.069 122.716 387.178C122.716 391.286 125.26 394.617 128.398 394.617Z" fill="#3F3D56"/>
<g id="tree1">
<path id="Vector 42" d="M107.122 324.942C106.344 323.953 105.634 322.911 104.998 321.826L119.939 319.378L103.787 319.5C102.237 316.129 101.39 312.477 101.3 308.768C101.208 305.058 101.874 301.37 103.256 297.926L124.931 309.167L104.955 294.47C106.83 291.239 109.35 288.429 112.358 286.214C115.365 283.999 118.796 282.427 122.438 281.595C126.079 280.763 129.853 280.688 133.524 281.377C137.195 282.066 140.685 283.503 143.777 285.597C146.869 287.692 149.498 290.401 151.498 293.556C153.499 296.71 154.829 300.243 155.406 303.933C155.982 307.623 155.794 311.392 154.852 315.007C153.91 318.622 152.234 322.003 149.929 324.942C151.139 326.48 152.179 328.145 153.03 329.907L133.644 339.995L154.315 333.056C155.765 337.344 156.123 341.927 155.357 346.389C154.592 350.851 152.726 355.052 149.929 358.611C153.088 362.628 155.053 367.452 155.6 372.532C156.146 377.613 155.253 382.745 153.02 387.341C150.788 391.937 147.307 395.813 142.976 398.525C138.645 401.236 133.638 402.674 128.528 402.674C123.418 402.674 118.411 401.236 114.08 398.525C109.749 395.813 106.268 391.937 104.036 387.341C101.803 382.745 100.909 377.613 101.456 372.532C102.003 367.452 103.968 362.628 107.127 358.611C103.353 353.811 101.302 347.883 101.302 341.777C101.302 335.671 103.353 329.742 107.127 324.942H107.122Z" fill="#6C63FF"/>
</g>
<path id="Vector 43" opacity="0.1" d="M155.77 341.774C155.774 347.884 153.716 353.817 149.929 358.611C153.088 362.628 155.053 367.452 155.6 372.532C156.146 377.613 155.253 382.745 153.02 387.341C150.788 391.937 147.307 395.813 142.976 398.525C138.645 401.236 133.638 402.674 128.528 402.674C123.418 402.674 118.411 401.236 114.08 398.525C109.749 395.813 106.268 391.937 104.036 387.341C101.803 382.745 100.909 377.613 101.456 372.532C102.003 367.452 103.968 362.628 107.127 358.611C103.474 353.976 155.77 338.721 155.77 341.774Z" fill="black"/>
<g id="Group" opacity="0.1">
<path id="Vector 60" opacity="0.1" d="M468.81 301.691C470.403 299.7 472.431 297.905 474.922 297.406C476.945 296.997 479.042 297.491 481.102 297.326C482.923 297.183 484.676 296.525 486.486 296.264C488.129 296.088 489.789 296.15 491.414 296.45C492.956 296.68 494.463 297.101 495.9 297.703C496.677 298.051 497.419 298.473 498.115 298.962C496.835 298.465 495.505 298.109 494.148 297.9C492.525 297.599 490.867 297.537 489.226 297.714C487.41 297.948 485.663 298.601 483.837 298.744C481.782 298.909 479.685 298.42 477.656 298.824C475.166 299.323 473.127 301.123 471.55 303.114C470.079 304.962 468.853 307.335 469.474 309.618C469.803 310.818 470.568 311.87 470.775 313.107C470.982 314.344 471.035 314.849 471.885 315.953C472.974 317.369 474.291 318.595 475.782 319.579C475.373 319.388 474.954 319.197 474.555 318.99C472.44 317.904 470.593 316.362 469.145 314.477C468.3 313.372 468.253 312.884 468.04 311.631C467.828 310.378 467.069 309.348 466.739 308.142C466.113 305.918 467.345 303.544 468.81 301.691Z" fill="black"/>
</g>
<path id="Vector 62" opacity="0.1" d="M117.991 148.67H84.1677C81.4847 148.67 79.3093 150.845 79.3093 153.528V174.608C79.3093 177.291 81.4847 179.466 84.1677 179.466H117.991C120.674 179.466 122.849 177.291 122.849 174.608V153.528C122.849 150.845 120.674 148.67 117.991 148.67Z" fill="#6C63FF"/>
<path id="Vector 63" opacity="0.1" d="M185.424 205.601H151.601C148.918 205.601 146.743 207.776 146.743 210.459V231.539C146.743 234.222 148.918 236.397 151.601 236.397H185.424C188.107 236.397 190.283 234.222 190.283 231.539V210.459C190.283 207.776 188.107 205.601 185.424 205.601Z" fill="#6C63FF"/>
<path id="Vector 64" opacity="0.1" d="M523.654 153.98H489.831C487.148 153.98 484.973 156.155 484.973 158.838V179.918C484.973 182.601 487.148 184.776 489.831 184.776H523.654C526.337 184.776 528.513 182.601 528.513 179.918V158.838C528.513 156.155 526.337 153.98 523.654 153.98Z" fill="#6C63FF"/>
</g>
</g>
<defs>
<linearGradient id="paint0_linear" x1="525.931" y1="272.052" x2="399.974" y2="272.052" gradientUnits="userSpaceOnUse">
<stop stop-color="#4B45BD"/>
<stop offset="1" stop-color="#58CAEA"/>
</linearGradient>
<linearGradient id="paint1_linear" x1="442.593" y1="182.956" x2="512.854" y2="182.956" gradientUnits="userSpaceOnUse">
<stop stop-color="#F87B58"/>
<stop offset="0.5" stop-color="#F8C548"/>
<stop offset="1" stop-color="#F89C51"/>
</linearGradient>
<linearGradient id="paint2_linear" x1="434.197" y1="170.318" x2="494.421" y2="170.318" gradientUnits="userSpaceOnUse">
<stop stop-color="#4B45BD"/>
<stop offset="1" stop-color="#58CAEA"/>
</linearGradient>
<linearGradient id="paint3_linear" x1="412.779" y1="215.727" x2="519.683" y2="215.727" gradientUnits="userSpaceOnUse">
<stop stop-color="#E5A4ED"/>
<stop offset="1" stop-color="#7A5BF5"/>
</linearGradient>
<clipPath id="clip0">
<rect width="174.99" height="269.312" fill="white" transform="translate(351 123)"/>
</clipPath>
<clipPath id="clip1">
<rect width="600" height="600" fill="white"/>
</clipPath>
</defs>
</svg>
